<svg xmlns="http://www.w3.org/2000/svg" viewBox="0 0 44 34"><title>Web Vibe Kingdom</title><g id="Capa_1" data-name="Capa 1"><path d="M36.48,3.72A34.81,34.81,0,0,0,28,1.08a.12.12,0,0,0-.13.07,21.7,21.7,0,0,0-1.06,2.17,31.85,31.85,0,0,0-9.55,0,23.06,23.06,0,0,0-1.08-2.17A.13.13,0,0,0,16,1.08,34.81,34.81,0,0,0,7.51,3.72a.12.12,0,0,0,0,0A35.2,35.2,0,0,0,1.29,27.54a.12.12,0,0,0,.05.1,34.28,34.28,0,0,0,10.43,5.27.14.14,0,0,0,.15,0,25.22,25.22,0,0,0,2.13-3.47.14.14,0,0,0-.07-.19,22.14,22.14,0,0,1-3.26-1.55.13.13,0,0,1,0-.22c.22-.17.44-.34.64-.51a.14.14,0,0,1,.14,0,24.71,24.71,0,0,0,21,0,.14.14,0,0,1,.14,0l.65.51a.14.14,0,0,1,0,.22A21.62,21.62,0,0,1,30,29.21a.13.13,0,0,0-.07.19,26.54,26.54,0,0,0,2.13,3.46.12.12,0,0,0,.15,0,34.21,34.21,0,0,0,10.44-5.27.18.18,0,0,0,.06-.09A35,35,0,0,0,36.53,3.77.12.12,0,0,0,36.48,3.72ZM15.07,22.8a4,4,0,0,1-3.75-4.21,4,4,0,0,1,3.75-4.21,4,4,0,0,1,3.76,4.21A4,4,0,0,1,15.07,22.8ZM29,22.8a4,4,0,0,1-3.75-4.21A4,4,0,0,1,29,14.38a4,4,0,0,1,3.76,4.21A4,4,0,0,1,29,22.8Z"/></g></svg>