<svg xmlns="http://www.w3.org/2000/svg" viewBox="0 0 27.72 27.72"><defs><style>.cls-1{fill:#fff;}</style></defs><title>instagram</title><g id="Layer_2" data-name="Layer 2"><g id="Layer_1-2" data-name="Layer 1"><path class="cls-1" d="M13.86,8.23a5.64,5.64,0,1,0,5.64,5.63A5.63,5.63,0,0,0,13.86,8.23Z"/><path class="cls-1" d="M27,3.89A5.13,5.13,0,0,0,25.78,2a5.19,5.19,0,0,0-2-1.27A9.22,9.22,0,0,0,20.7.1C18.91,0,18.38,0,13.86,0S8.81,0,7,.1A9.3,9.3,0,0,0,3.89.68,5.15,5.15,0,0,0,2,2,5.15,5.15,0,0,0,.68,3.89,9.56,9.56,0,0,0,.1,7C0,8.81,0,9.35,0,13.86s0,5.05.1,6.83a9.5,9.5,0,0,0,.58,3.14,5.19,5.19,0,0,0,1.27,2A5.13,5.13,0,0,0,3.89,27,9.3,9.3,0,0,0,7,27.62c1.78.08,2.32.1,6.83.1s5.05,0,6.84-.1A9.22,9.22,0,0,0,23.83,27,5.52,5.52,0,0,0,27,23.83a9.24,9.24,0,0,0,.58-3.14c.09-1.78.1-2.31.1-6.83s0-5-.1-6.83A9.3,9.3,0,0,0,27,3.89ZM13.86,22.54a8.68,8.68,0,1,1,8.68-8.68A8.68,8.68,0,0,1,13.86,22.54Zm9-15.68a2,2,0,1,1,2-2A2,2,0,0,1,22.89,6.86Z"/></g></g></svg>